<svg width="20" height="20" viewBox="0 0 20 20" fill="none" xmlns="http://www.w3.org/2000/svg">
<g clip-path="url(#clip0_378_44)">
<path d="M18.75 8.75H11.25V1.25C11.25 0.559648 10.6904 0 10 0C9.30965 0 8.75 0.559648 8.75 1.25V8.75H1.25C0.559648 8.75 0 9.30965 0 10C0 10.6904 0.559648 11.25 1.25 11.25H8.75V18.75C8.75 19.4404 9.30965 20 10 20C10.6904 20 11.25 19.4404 11.25 18.75V11.25H18.75C19.4404 11.25 20 10.6904 20 10C20 9.30965 19.4404 8.75 18.75 8.75Z" fill="#FFF5F5"/>
</g>
<defs>
<clipPath id="clip0_378_44">
<rect width="20" height="20" fill="white"/>
</clipPath>
</defs>
</svg>
