<svg width="16" height="17" viewBox="0 0 16 17" fill="none" xmlns="http://www.w3.org/2000/svg">
<g clip-path="url(#clip0_100_52)">
<path d="M8 10.7201C6.89544 10.7201 6 11.6155 6 12.7201V16.7201H10V12.7201C10 11.6155 9.10456 10.7201 8 10.7201Z" fill="#FFF5F5"/>
<path d="M11.3333 12.7275V16.73H14C15.1046 16.73 16 15.834 16 14.7288V8.64435C16.0002 8.29779 15.8656 7.96477 15.6247 7.71577L9.95934 1.58727C8.95972 0.505033 7.27259 0.438585 6.19103 1.43883C6.13966 1.48636 6.09016 1.53586 6.04269 1.58727L0.387344 7.71377C0.139156 7.9638 -9.37027e-05 8.30195 4.73072e-08 8.65436V14.7288C4.73072e-08 15.834 0.895437 16.73 2 16.73H4.66666V12.7275C4.67912 10.9085 6.14684 9.42312 7.91894 9.38034C9.75031 9.33612 11.3194 10.8468 11.3333 12.7275Z" fill="#FFF5F5"/>
<path d="M8 10.7201C6.89544 10.7201 6 11.6155 6 12.7201V16.7201H10V12.7201C10 11.6155 9.10456 10.7201 8 10.7201Z" fill="#FFF5F5"/>
</g>
<defs>
<clipPath id="clip0_100_52">
<rect width="16" height="16" fill="white" transform="translate(0 0.725037)"/>
</clipPath>
</defs>
</svg>
