<svg width="20" height="20" viewBox="0 0 20 20" fill="none" xmlns="http://www.w3.org/2000/svg">
<g clip-path="url(#clip0_408_59)">
<path d="M5.69168 20C5.80135 20.0006 5.91007 19.9796 6.0116 19.9381C6.11314 19.8967 6.20548 19.8356 6.28335 19.7583L13.0917 12.95C13.4797 12.5629 13.7876 12.1031 13.9976 11.5969C14.2077 11.0907 14.3158 10.5481 14.3158 9.99999C14.3158 9.45193 14.2077 8.90925 13.9976 8.40304C13.7876 7.89684 13.4797 7.43704 13.0917 7.04999L6.28335 0.241658C6.20565 0.16396 6.11341 0.102326 6.01189 0.0602753C5.91037 0.018225 5.80156 -0.00341797 5.69168 -0.00341797C5.5818 -0.00341797 5.47299 0.018225 5.37147 0.0602753C5.26996 0.102326 5.17771 0.16396 5.10002 0.241658C5.02232 0.319357 4.96068 0.411599 4.91863 0.513117C4.87658 0.614636 4.85494 0.723442 4.85494 0.833325C4.85494 0.943208 4.87658 1.05201 4.91863 1.15353C4.96068 1.25505 5.02232 1.34729 5.10002 1.42499L11.9083 8.23332C12.3765 8.70208 12.6395 9.33749 12.6395 9.99999C12.6395 10.6625 12.3765 11.2979 11.9083 11.7667L5.10002 18.575C5.02191 18.6525 4.95991 18.7446 4.9176 18.8462C4.8753 18.9477 4.85352 19.0566 4.85352 19.1667C4.85352 19.2767 4.8753 19.3856 4.9176 19.4871C4.95991 19.5887 5.02191 19.6809 5.10002 19.7583C5.17788 19.8356 5.27023 19.8967 5.37176 19.9381C5.47329 19.9796 5.58201 20.0006 5.69168 20Z" fill="#FFF5F5"/>
</g>
<defs>
<clipPath id="clip0_408_59">
<rect width="20" height="20" fill="white" transform="matrix(-1 0 0 1 20 0)"/>
</clipPath>
</defs>
</svg>
