<svg width="33" height="32" viewBox="0 0 33 32" fill="none" xmlns="http://www.w3.org/2000/svg">
<path d="M15.8342 5.45519C15.5321 5.52462 15.1954 5.66695 14.9454 5.83358C14.5809 6.07312 7.55108 11.6345 7.34973 11.8393C6.99563 12.2039 6.73874 12.6829 6.63459 13.1828C6.55475 13.5543 6.55475 24.0244 6.63459 24.3959C6.84983 25.42 7.65175 26.2497 8.67933 26.5135C8.93969 26.5795 9.06119 26.5829 10.8143 26.5829C12.2585 26.5829 12.7132 26.5725 12.8486 26.5343C13.1229 26.4614 13.3833 26.3122 13.6054 26.1004C13.8241 25.8956 13.9352 25.7255 14.0567 25.4269C14.1331 25.2499 14.1331 25.2013 14.1505 22.8858L14.1678 20.5251L14.2511 20.3168C14.3657 20.0322 14.6816 19.7163 14.9663 19.6017C15.1746 19.5184 15.1815 19.5184 16.4417 19.5184C17.7018 19.5184 17.7088 19.5184 17.9171 19.6017C18.2017 19.7163 18.5177 20.0322 18.6322 20.3168L18.7155 20.5251L18.7329 22.8858C18.7502 25.2013 18.7502 25.2499 18.8266 25.4269C19.0557 25.9893 19.4932 26.392 20.0347 26.5343C20.1701 26.5725 20.6249 26.5829 22.069 26.5829C23.8222 26.5829 23.9437 26.5795 24.204 26.5135C25.2316 26.2497 26.0335 25.42 26.2488 24.3959C26.3251 24.0279 26.3286 13.5577 26.2488 13.1898C26.1342 12.6447 25.853 12.1448 25.4468 11.7595C25.0962 11.4297 18.115 5.93426 17.8303 5.76763C17.6949 5.68778 17.4588 5.58016 17.3026 5.52809C17.0527 5.44477 16.9485 5.43089 16.5285 5.42047C16.2021 5.41006 15.973 5.42394 15.8342 5.45519Z" fill="#FCFCFC"/>
</svg>
