<svg width="33" height="32" viewBox="0 0 33 32" fill="none" xmlns="http://www.w3.org/2000/svg">
<path d="M25.8655 6.18238L25.868 6.18406C26.3786 6.51799 26.6347 7.27026 26.4313 7.86935L26.357 8.08731L18.521 15.9993L26.3558 23.9102L26.4296 24.1317C26.5168 24.4068 26.5175 24.8226 26.4408 25.0669C26.4144 25.1439 26.3222 25.3288 26.2398 25.4464L26.2349 25.4537C25.8996 25.9539 25.1807 26.1957 24.5713 25.985L24.3536 25.9124L16.4428 18.0776L8.53187 25.9124L8.31878 25.9834L8.31342 25.9853C8.20202 26.024 8.03185 26.0508 7.84226 26.0528C7.65444 26.0548 7.48561 26.032 7.37515 25.9974C7.29809 25.971 7.11332 25.8787 6.99573 25.7964L6.98839 25.7915C6.48816 25.4562 6.2464 24.7373 6.45711 24.1279L6.52968 23.9102L14.3645 15.9993L6.52968 8.08846L6.45869 7.87537L6.45682 7.87C6.41808 7.7586 6.39127 7.58843 6.38928 7.39884C6.38731 7.21102 6.41009 7.04219 6.44474 6.93173C6.47109 6.85467 6.56335 6.66991 6.64566 6.55231L6.65058 6.54498C6.98464 6.04662 7.67554 5.80739 8.30955 6.01216L8.53188 6.08627L16.4428 13.9211L24.3579 6.08208L24.522 6.0226L24.5248 6.02159C24.9309 5.87138 25.497 5.93767 25.8655 6.18238Z" fill="#FCFCFC"/>
</svg>
