<svg width="33" height="32" viewBox="0 0 33 32" fill="none" xmlns="http://www.w3.org/2000/svg">
<path d="M9.05957 26.2212C12.1393 26.2212 14.7437 24.6019 15.6015 22.3749C15.9259 21.5327 15.169 20.7774 14.2665 20.7774H3.85268C2.95009 20.7774 2.19326 21.5327 2.51768 22.3749C3.37548 24.6019 5.97988 26.2212 9.05957 26.2212Z" fill="#FCFCFC"/>
<path fill-rule="evenodd" clip-rule="evenodd" d="M11.7141 20.7338L9.05951 10.1506L6.40496 20.7338L11.7141 20.7338ZM10.6447 9.75297C10.2311 8.10406 7.88792 8.10406 7.47433 9.75297L4.81978 20.3362C4.56098 21.368 5.34122 22.3681 6.40496 22.3681H11.7141C12.7778 22.3681 13.558 21.368 13.2992 20.3362L10.6447 9.75297Z" fill="#FCFCFC"/>
<path d="M23.7586 26.2212C26.8382 26.2212 29.4426 24.6019 30.3004 22.3749C30.6249 21.5327 29.868 20.7774 28.9654 20.7774H18.5517C17.6491 20.7774 16.8922 21.5327 17.2167 22.3749C18.0745 24.6019 20.6789 26.2212 23.7586 26.2212Z" fill="#FCFCFC"/>
<path fill-rule="evenodd" clip-rule="evenodd" d="M26.4131 20.7338L23.7585 10.1506L21.1039 20.7338L26.4131 20.7338ZM25.3437 9.75297C24.9301 8.10406 22.5869 8.10406 22.1733 9.75297L19.5188 20.3362C19.26 21.368 20.0402 22.3681 21.1039 22.3681H26.4131C27.4768 22.3681 28.257 21.368 27.9982 20.3362L25.3437 9.75297Z" fill="#FCFCFC"/>
<path d="M6.20486 8.53078C6.20486 8.07948 6.5707 7.71363 7.022 7.71363H25.7961C26.2474 7.71363 26.6133 8.07948 26.6133 8.53078C26.6133 8.98207 26.2474 9.34792 25.7961 9.34792H7.022C6.5707 9.34792 6.20486 8.98207 6.20486 8.53078Z" fill="#FCFCFC"/>
<path d="M18.9398 8.53078C18.9398 9.92849 17.8068 11.0616 16.4091 11.0616C15.0114 11.0616 13.8783 9.92849 13.8783 8.53078C13.8783 7.13307 15.0114 6 16.4091 6C17.8068 6 18.9398 7.13307 18.9398 8.53078Z" fill="#FCFCFC"/>
</svg>
