<svg width="20" height="21" viewBox="0 0 20 21" fill="none" xmlns="http://www.w3.org/2000/svg">
<g clip-path="url(#clip0_373_13)">
<path d="M3.33332 0.72998H5.83332C7.67426 0.72998 9.16664 2.22236 9.16664 4.0633V6.5633C9.16664 8.40424 7.67426 9.89662 5.83332 9.89662H3.33332C1.49238 9.89666 0 8.40428 0 6.5633V4.0633C0 2.22236 1.49238 0.72998 3.33332 0.72998Z" fill="#FFF5F5"/>
<path d="M14.1667 0.72998H16.6667C18.5076 0.72998 20 2.22236 20 4.0633V6.5633C20 8.40424 18.5076 9.89662 16.6667 9.89662H14.1667C12.3258 9.89662 10.8334 8.40424 10.8334 6.5633V4.0633C10.8333 2.22236 12.3257 0.72998 14.1667 0.72998Z" fill="#FFF5F5"/>
<path d="M3.33332 11.5634H5.83332C7.67426 11.5634 9.16664 13.0557 9.16664 14.8967V17.3967C9.16664 19.2376 7.67426 20.73 5.83332 20.73H3.33332C1.49238 20.73 0 19.2376 0 17.3967V14.8967C0 13.0557 1.49238 11.5634 3.33332 11.5634Z" fill="#FFF5F5"/>
<path d="M14.1667 11.5634H16.6667C18.5076 11.5634 20 13.0557 20 14.8967V17.3967C20 19.2377 18.5076 20.73 16.6667 20.73H14.1667C12.3258 20.73 10.8334 19.2377 10.8334 17.3967V14.8967C10.8333 13.0557 12.3257 11.5634 14.1667 11.5634Z" fill="#FFF5F5"/>
</g>
<defs>
<clipPath id="clip0_373_13">
<rect width="20" height="20" fill="white" transform="translate(0 0.72998)"/>
</clipPath>
</defs>
</svg>
