<svg width="33" height="32" viewBox="0 0 33 32" fill="none" xmlns="http://www.w3.org/2000/svg">
<path d="M9.29837 15.8966C9.29837 15.4819 9.45527 15.0842 9.73455 14.7909C10.0138 14.4977 10.3926 14.333 10.7876 14.333H22.1674C22.5623 14.333 22.9411 14.4977 23.2204 14.7909C23.4997 15.0842 23.6566 15.4819 23.6566 15.8966C23.6566 16.3113 23.4997 16.7091 23.2204 17.0023C22.9411 17.2955 22.5623 17.4603 22.1674 17.4603H10.7876C10.3926 17.4603 10.0138 17.2955 9.73455 17.0023C9.45527 16.7091 9.29837 16.3113 9.29837 15.8966Z" fill="#FCFCFC"/>
<path d="M13.1259 23.9217C13.1259 23.507 13.2828 23.1092 13.5621 22.816C13.8414 22.5228 14.2202 22.358 14.6151 22.358H18.3427C18.7377 22.358 19.1165 22.5228 19.3958 22.816C19.675 23.1092 19.8319 23.507 19.8319 23.9217C19.8319 24.3364 19.675 24.7341 19.3958 25.0274C19.1165 25.3206 18.7377 25.4853 18.3427 25.4853H14.6151C14.2202 25.4853 13.8414 25.3206 13.5621 25.0274C13.2828 24.7341 13.1259 24.3364 13.1259 23.9217Z" fill="#FCFCFC"/>
<path d="M6.01685 8.07831C6.01685 7.6636 6.17374 7.26588 6.45302 6.97263C6.7323 6.67939 7.11109 6.51465 7.50605 6.51465H25.3765C25.7714 6.51465 26.1502 6.67939 26.4295 6.97263C26.7088 7.26588 26.8657 7.6636 26.8657 8.07831C26.8657 8.49302 26.7088 8.89074 26.4295 9.18399C26.1502 9.47723 25.7714 9.64197 25.3765 9.64197H7.50605C7.11109 9.64197 6.7323 9.47723 6.45302 9.18399C6.17374 8.89074 6.01685 8.49302 6.01685 8.07831Z" fill="#FCFCFC"/>
</svg>
