<svg width="33" height="32" viewBox="0 0 33 32" fill="none" xmlns="http://www.w3.org/2000/svg">
<path d="M12.1452 4.191C11.8488 4.23161 11.5524 4.38184 9.90387 5.32384C8.91721 5.88823 8.40154 6.20494 8.26755 6.33487C7.81279 6.77338 7.76001 7.17942 8.01581 8.24729C8.13762 8.7589 8.16604 8.95379 8.16604 9.28268C8.16604 10.6226 7.34585 11.9016 6.11556 12.4701C5.97751 12.535 5.6405 12.6528 5.36846 12.7299C4.36555 13.0223 4.12599 13.1684 3.89455 13.6232L3.75244 13.9034V15.9985V18.0936L3.88643 18.3657C4.10569 18.8123 4.4224 19.0153 5.21823 19.2305C6.10744 19.4742 6.61499 19.7421 7.11441 20.2416C7.80873 20.9359 8.16198 21.7723 8.16198 22.7265C8.16198 23.0716 8.13356 23.2584 8.01175 23.7659C7.76001 24.7973 7.81279 25.2358 8.23507 25.654C8.35282 25.7677 8.8969 26.1047 9.85515 26.6529C11.8813 27.8141 11.9097 27.8263 12.3847 27.8263C12.807 27.8263 13.0669 27.6842 13.6475 27.1401C14.3987 26.4377 14.7357 26.2225 15.4503 26.0073C15.7751 25.9057 15.8726 25.8936 16.441 25.8936C17.0095 25.8936 17.1069 25.9057 17.4318 26.0073C18.1464 26.2225 18.4834 26.4377 19.2346 27.1401C19.8152 27.6842 20.075 27.8263 20.4973 27.8263C20.9724 27.8263 21.0008 27.8141 23.0269 26.6529C23.9852 26.1047 24.5292 25.7677 24.647 25.654C25.0693 25.2317 25.1221 24.8013 24.8703 23.7619C24.7444 23.2503 24.716 23.0594 24.716 22.7224C24.716 21.5531 25.3291 20.4324 26.328 19.7787C26.6772 19.5554 27.0751 19.3929 27.6679 19.2305C28.4394 19.0235 28.7804 18.8001 28.9956 18.3657L29.1296 18.0936V15.9985V13.9034L28.9875 13.6232C28.7561 13.1684 28.5165 13.0223 27.5136 12.7299C27.2416 12.6528 26.9046 12.535 26.7665 12.4701C25.5362 11.9016 24.716 10.6267 24.716 9.28268C24.712 8.94973 24.7404 8.76295 24.8663 8.24729C25.1261 7.18348 25.0693 6.77338 24.6145 6.33487C24.4805 6.20494 23.9649 5.88823 22.9985 5.33602C21.0089 4.19506 20.9724 4.17882 20.4973 4.17882C20.075 4.17882 19.8152 4.32093 19.2346 4.86502C18.4834 5.56746 18.1464 5.78266 17.4318 5.99786C17.1069 6.09937 17.0095 6.11155 16.441 6.11155C15.8726 6.11155 15.7751 6.09937 15.4503 5.99786C14.7357 5.78266 14.3987 5.56746 13.6475 4.86502C13.006 4.26409 12.6852 4.11792 12.1452 4.191ZM17.1597 11.9219C18.8975 12.2508 20.2212 13.5826 20.5217 15.3082C20.7978 16.8796 20.1075 18.5119 18.7798 19.4214C18.4306 19.665 17.8459 19.9249 17.4318 20.0304C16.912 20.1604 15.97 20.1604 15.4503 20.0304C14.289 19.7381 13.2821 18.9301 12.7461 17.8703C12.2467 16.8755 12.1614 15.7224 12.5187 14.6789C13.0019 13.2537 14.1916 12.2224 15.6939 11.926C16.0756 11.8488 16.7699 11.8488 17.1597 11.9219Z" fill="#FCFCFC"/>
</svg>
