<svg width="33" height="32" viewBox="0 0 33 32" fill="none" xmlns="http://www.w3.org/2000/svg">
<path fill-rule="evenodd" clip-rule="evenodd" d="M16.5721 29.4642C23.9359 29.4642 29.9054 23.4947 29.9054 16.1309C29.9054 8.76711 23.9359 2.79758 16.5721 2.79758C9.20831 2.79758 3.23877 8.76711 3.23877 16.1309C3.23877 23.4947 9.20831 29.4642 16.5721 29.4642ZM15.7085 10.5373C15.8097 10.3172 16.0474 10.1301 16.2873 10.0817C16.624 10.0113 17.0069 10.2027 17.161 10.5153L17.2226 10.6407L17.2336 12.9185L17.2446 15.1963L19.5224 15.2073L21.8002 15.2183L21.9279 15.2821C22.0687 15.3548 22.2228 15.5066 22.291 15.6387C22.3152 15.6871 22.3482 15.7883 22.3614 15.8632C22.4275 16.1977 22.2404 16.5652 21.9235 16.7193L21.8002 16.7809L19.5224 16.7919L17.2446 16.8029L17.2336 19.0807L17.2226 21.3585L17.161 21.4817C17.095 21.6182 16.9343 21.7811 16.8023 21.8493C16.7539 21.8735 16.6526 21.9065 16.5778 21.9197C16.2433 21.9857 15.8757 21.7987 15.7217 21.4817L15.6601 21.3585L15.6491 19.0807L15.6381 16.8029L13.3603 16.7919L11.0824 16.7809L10.9592 16.7193C10.8228 16.6532 10.6599 16.4926 10.5917 16.3605C10.5675 16.3121 10.5345 16.2109 10.5212 16.1361C10.4552 15.8015 10.6357 15.445 10.9548 15.2821L11.0824 15.2183L13.3603 15.2073L15.6381 15.1963L15.6491 12.9185L15.6601 10.6407L15.7085 10.5373Z" fill="#FCFCFC"/>
</svg>
