<svg width="33" height="32" viewBox="0 0 33 32" fill="none" xmlns="http://www.w3.org/2000/svg">
<path d="M5.64759 4.27252C5.07089 4.38544 4.69987 4.83308 4.69987 5.41784C4.69987 5.92598 4.66761 5.88969 6.77679 8.00693L8.67626 9.91043L8.55527 10.0032C7.16394 11.0921 4.75633 13.786 4.07881 15.02C3.68763 15.7258 3.73199 16.4396 4.20787 17.2018C4.7402 18.0568 5.95409 19.5409 6.93407 20.5289C10.0232 23.6503 13.435 25.2352 16.7863 25.1022C18.5124 25.0376 20.1416 24.586 21.7467 23.727L22.2307 23.4689L24.2874 25.5175C26.5619 27.784 26.5176 27.7477 27.0176 27.7477C27.7113 27.7517 28.1993 27.2517 28.1872 26.5459C28.1831 26.0458 28.9655 26.8645 17.3549 15.2459C11.4952 9.38213 6.63161 4.53465 6.54288 4.47416C6.28075 4.28865 5.94199 4.21202 5.64759 4.27252ZM15.6047 16.8389C17.1331 18.3673 18.3793 19.6256 18.3793 19.6417C18.3793 19.682 17.7905 19.9159 17.4598 20.0006C17.0162 20.1176 16.2459 20.1458 15.7741 20.0611C14.0399 19.7586 12.6889 18.4076 12.3865 16.6735C12.3018 16.1855 12.326 15.4637 12.451 14.9959C12.5438 14.6369 12.7615 14.0683 12.8059 14.0683C12.822 14.0683 14.0803 15.3144 15.6047 16.8389Z" fill="#FCFCFC"/>
<path d="M15.524 6.93424C14.5642 7.01892 13.2212 7.33752 12.8905 7.55529C12.701 7.68031 12.5316 8.01101 12.5316 8.25701C12.5316 8.66836 12.2977 8.41832 18.6857 14.8023C23.3558 19.4683 24.6906 20.779 24.8318 20.8395C25.0818 20.9524 25.3359 20.9484 25.5859 20.8234C26.0941 20.5693 28.4089 17.7947 28.8646 16.8913C29.0905 16.4437 29.1308 15.8549 28.9695 15.3871C28.6307 14.4394 26.5578 11.9309 24.9124 10.4952C21.9039 7.86179 18.7059 6.65194 15.524 6.93424Z" fill="#FCFCFC"/>
</svg>
