<svg width="24" height="25" viewBox="0 0 24 25" fill="none" xmlns="http://www.w3.org/2000/svg">
<g clip-path="url(#clip0_142_2625)">
<path fill-rule="evenodd" clip-rule="evenodd" d="M18.765 5.383C20.249 5.383 21.525 6.49 21.735 7.959L24 22.883V24.383H0L0.011 22.733L2.265 7.95C2.474 6.49 3.751 5.383 5.234 5.383H8.85C8.632 4.927 8.499 4.422 8.499 3.883C8.499 1.953 10.069 0.382996 11.999 0.382996C13.929 0.382996 15.499 1.953 15.499 3.883C15.499 4.422 15.367 4.927 15.148 5.383H18.765ZM12 2.383C11.173 2.383 10.5 3.056 10.5 3.883C10.5 4.71 11.173 5.383 12 5.383C12.827 5.383 13.5 4.71 13.5 3.883C13.5 3.056 12.827 2.383 12 2.383ZM4.245 8.242L2.088 22.383H21.912L19.757 8.251C19.686 7.752 19.26 7.383 18.766 7.383H5.235C4.741 7.383 4.315 7.752 4.245 8.242Z" fill="#FFF5F5"/>
<path d="M8.81616 15.6874V17.1815C8.81616 17.3895 8.75757 17.5653 8.64038 17.7089C8.52319 17.8495 8.3606 17.9198 8.15259 17.9198C7.95044 17.9198 7.78931 17.8495 7.66919 17.7089C7.552 17.5653 7.49341 17.3895 7.49341 17.1815V11.9872C7.49341 11.8583 7.51831 11.7382 7.56812 11.6268C7.62085 11.5126 7.69702 11.4232 7.79663 11.3588C7.89917 11.2943 8.01782 11.2621 8.15259 11.2621C8.35767 11.2621 8.5188 11.3324 8.63599 11.473C8.7561 11.6107 8.81616 11.7821 8.81616 11.9872V14.7953L10.1301 13.4462C10.2678 13.3026 10.4685 13.2308 10.7322 13.2308C10.8435 13.2308 10.9504 13.2792 11.053 13.3759C11.1555 13.4696 11.2229 13.5751 11.2551 13.6923C11.2668 13.7626 11.2727 13.8124 11.2727 13.8417C11.2727 14.0409 11.1921 14.2123 11.031 14.3558L10.095 15.2479L11.2551 16.6893C11.4368 16.9266 11.5276 17.1053 11.5276 17.2255C11.5276 17.413 11.4734 17.5756 11.365 17.7133C11.2595 17.851 11.1204 17.9198 10.9475 17.9198C10.6721 17.9198 10.4597 17.8173 10.3103 17.6122L8.81616 15.6874Z" fill="#FFF5F5"/>
<path d="M15.2278 13.7274C15.4124 13.3964 15.6262 13.2308 15.8694 13.2308C16.0657 13.2308 16.2209 13.3011 16.3352 13.4418C16.4495 13.5795 16.5066 13.7494 16.5066 13.9515V17.4452C16.5066 17.7997 16.4539 18.119 16.3484 18.4032C16.2429 18.6874 16.0891 18.9276 15.887 19.1239C15.6848 19.3231 15.4402 19.4755 15.1531 19.5809C14.866 19.6864 14.5466 19.7391 14.1951 19.7391C13.574 19.7391 13.0364 19.6132 12.5823 19.3612C12.3127 19.2147 12.178 19.017 12.178 18.7679C12.178 18.6215 12.2322 18.4911 12.3406 18.3768C12.4519 18.2626 12.5808 18.201 12.7273 18.1923C12.8269 18.1923 12.9177 18.204 12.9998 18.2274L13.3689 18.3505C13.6531 18.453 13.9197 18.5043 14.1687 18.5043C14.6199 18.5043 14.926 18.3607 15.0872 18.0736C15.1575 17.9388 15.2043 17.6957 15.2278 17.3441C15.0696 17.5463 14.907 17.6971 14.74 17.7968C14.5759 17.8964 14.3738 17.9462 14.1335 17.9462C13.8582 17.9462 13.5916 17.8905 13.3337 17.7792C13.0759 17.6649 12.8562 17.5052 12.6746 17.3002C12.2908 16.8754 12.0989 16.2806 12.0989 15.516C12.0989 15.1849 12.1619 14.8641 12.2878 14.5536C12.4138 14.2401 12.594 13.9735 12.8284 13.7538C12.9983 13.5868 13.1946 13.4535 13.4172 13.3539C13.6428 13.2543 13.8684 13.2045 14.094 13.2045C14.3372 13.2045 14.5437 13.2455 14.7136 13.3275C14.8835 13.4095 15.0549 13.5428 15.2278 13.7274ZM13.4216 15.5248C13.4216 15.9232 13.5081 16.2206 13.6809 16.4169C13.8508 16.6161 14.0618 16.7157 14.3137 16.7157C14.592 16.7157 14.8088 16.5985 14.9641 16.3641C15.1223 16.1298 15.2014 15.8661 15.2014 15.5731C15.2014 15.3827 15.1648 15.201 15.0916 15.0282C15.0183 14.8524 14.9099 14.7103 14.7664 14.6019C14.6257 14.4935 14.4558 14.4393 14.2566 14.4393C13.9958 14.4393 13.7908 14.5507 13.6414 14.7733C13.4949 14.996 13.4216 15.2465 13.4216 15.5248Z" fill="#FFF5F5"/>
</g>
<defs>
<clipPath id="clip0_142_2625">
<rect width="24" height="24" fill="white" transform="translate(0 0.382996)"/>
</clipPath>
</defs>
</svg>
