<svg width="24" height="25" viewBox="0 0 24 25" fill="none" xmlns="http://www.w3.org/2000/svg">
<g clip-path="url(#clip0_142_2629)">
<path d="M24 12.5585C24 16.9695 20.411 20.5585 16 20.5585H3L5.293 22.8515C5.684 23.2425 5.684 23.8745 5.293 24.2655C5.098 24.4605 4.842 24.5585 4.586 24.5585C4.33 24.5585 4.074 24.4605 3.879 24.2655L0.586 20.9725C-0.194 20.1935 -0.194 18.9235 0.586 18.1445L3.879 14.8515C4.27 14.4605 4.902 14.4605 5.293 14.8515C5.684 15.2425 5.684 15.8745 5.293 16.2655L3 18.5585H16C19.309 18.5585 22 15.8675 22 12.5585C22 12.0055 22.448 11.5585 23 11.5585C23.552 11.5585 24 12.0055 24 12.5585ZM1 13.5585C1.552 13.5585 2 13.1115 2 12.5585C2 9.24954 4.691 6.55854 8 6.55854H21L18.707 8.85154C18.316 9.24254 18.316 9.87454 18.707 10.2655C18.902 10.4605 19.158 10.5585 19.414 10.5585C19.67 10.5585 19.926 10.4605 20.121 10.2655L23.414 6.97254C24.194 6.19354 24.194 4.92354 23.414 4.14454L20.121 0.851539C19.73 0.460539 19.098 0.460539 18.707 0.851539C18.316 1.24254 18.316 1.87454 18.707 2.26554L21 4.55854H8C3.589 4.55854 0 8.14754 0 12.5585C0 13.1115 0.448 13.5585 1 13.5585Z" fill="#FFF5F5"/>
</g>
<defs>
<clipPath id="clip0_142_2629">
<rect width="24" height="24" fill="white" transform="translate(0 0.558472)"/>
</clipPath>
</defs>
</svg>
