<svg width="33" height="32" viewBox="0 0 33 32" fill="none" xmlns="http://www.w3.org/2000/svg">
<path fill-rule="evenodd" clip-rule="evenodd" d="M1.44116 9C0.888877 9 0.441162 9.44772 0.441162 10V22C0.441162 22.5523 0.888877 23 1.44116 23H31.4412C31.9934 23 32.4412 22.5523 32.4412 22V10C32.4412 9.44772 31.9934 9 31.4412 9H27.1078V15.0883C27.1078 15.4749 26.8094 15.7883 26.4412 15.7883C26.073 15.7883 25.7745 15.4749 25.7745 15.0883V9H20.4412V15.0883C20.4412 15.4749 20.1427 15.7883 19.7745 15.7883C19.4063 15.7883 19.1078 15.4749 19.1078 15.0883V9H13.7745V15.0883C13.7745 15.4749 13.476 15.7883 13.1078 15.7883C12.7396 15.7883 12.4412 15.4749 12.4412 15.0883V9H7.10783V15.0883C7.10783 15.4749 6.80935 15.7883 6.44116 15.7883C6.07297 15.7883 5.7745 15.4749 5.7745 15.0883V9H1.44116Z" fill="#FCFCFC"/>
</svg>
