<svg width="33" height="32" viewBox="0 0 33 32" fill="none" xmlns="http://www.w3.org/2000/svg">
<path fill-rule="evenodd" clip-rule="evenodd" d="M16.4414 27.5881C22.8414 27.5881 28.0295 22.3999 28.0295 16C28.0295 9.60005 22.8414 4.41187 16.4414 4.41187C10.0415 4.41187 4.85327 9.60005 4.85327 16C4.85327 22.3999 10.0415 27.5881 16.4414 27.5881ZM17.8859 11.8505C17.8859 11.0528 17.2392 10.4061 16.4414 10.4061C15.6437 10.4061 14.997 11.0528 14.997 11.8505V15.9353C14.997 16.3567 15.1644 16.7608 15.4624 17.0588L17.5893 19.1858C18.1534 19.7499 19.068 19.7499 19.6321 19.1858C20.1962 18.6217 20.1962 17.7071 19.6321 17.143L17.8859 15.3968V11.8505Z" fill="#FCFCFC"/>
</svg>
