<svg width="24" height="25" viewBox="0 0 24 25" fill="none" xmlns="http://www.w3.org/2000/svg">
<g clip-path="url(#clip0_142_2632)">
<path d="M4.00005 6.68786C3.6058 6.68889 3.21526 6.61174 2.85103 6.46086C2.48679 6.30998 2.15609 6.08837 1.87805 5.80886L0.334051 4.43486C0.135935 4.25823 0.0160998 4.01012 0.000909398 3.74514C-0.0142811 3.48015 0.0764171 3.21998 0.253051 3.02186C0.429686 2.82374 0.677787 2.70391 0.942776 2.68872C1.20776 2.67353 1.46793 2.76423 1.66605 2.94086L3.25105 4.35486C3.34179 4.45676 3.45242 4.53901 3.57613 4.59655C3.69984 4.65409 3.83402 4.68571 3.97041 4.68946C4.1068 4.6932 4.24251 4.669 4.3692 4.61834C4.49588 4.56767 4.61086 4.49162 4.70705 4.39486L8.31105 0.96386C8.50485 0.79133 8.75811 0.700879 9.01736 0.711611C9.2766 0.722343 9.52152 0.833418 9.70039 1.02137C9.87926 1.20933 9.97808 1.45945 9.97596 1.71891C9.97384 1.97837 9.87097 2.22685 9.68905 2.41186L6.10005 5.82586C5.82382 6.10048 5.49618 6.31796 5.13584 6.46587C4.77551 6.61377 4.38956 6.68921 4.00005 6.68786ZM24.0001 4.68786C24.0001 4.42264 23.8947 4.16829 23.7072 3.98075C23.5196 3.79322 23.2653 3.68786 23.0001 3.68786H13.0001C12.7348 3.68786 12.4805 3.79322 12.2929 3.98075C12.1054 4.16829 12.0001 4.42264 12.0001 4.68786C12.0001 4.95308 12.1054 5.20743 12.2929 5.39497C12.4805 5.5825 12.7348 5.68786 13.0001 5.68786H23.0001C23.2653 5.68786 23.5196 5.5825 23.7072 5.39497C23.8947 5.20743 24.0001 4.95308 24.0001 4.68786ZM6.10005 13.8259L9.68905 10.4119C9.78922 10.3227 9.87043 10.2143 9.92785 10.0931C9.98526 9.97185 10.0177 9.84033 10.0233 9.70633C10.0288 9.57232 10.0073 9.43857 9.96014 9.31304C9.91294 9.1875 9.84097 9.07274 9.74851 8.97558C9.65605 8.87843 9.545 8.80087 9.42195 8.74751C9.2989 8.69415 9.16638 8.66609 9.03227 8.665C8.89815 8.6639 8.76519 8.6898 8.64129 8.74114C8.51739 8.79248 8.40508 8.86823 8.31105 8.96386L4.71105 12.3949C4.52068 12.5769 4.26744 12.6785 4.00405 12.6785C3.74066 12.6785 3.48742 12.5769 3.29705 12.3949L1.70705 10.8099C1.51845 10.6277 1.26585 10.5269 1.00365 10.5292C0.741453 10.5315 0.490641 10.6366 0.305233 10.822C0.119825 11.0074 0.0146557 11.2583 0.0123772 11.5205C0.0100988 11.7827 0.110893 12.0353 0.293051 12.2239L1.87805 13.8089C2.43772 14.3687 3.19597 14.6846 3.98755 14.6878C4.77913 14.6909 5.53989 14.3811 6.10405 13.8259H6.10005ZM24.0001 12.6879C24.0001 12.4226 23.8947 12.1683 23.7072 11.9808C23.5196 11.7932 23.2653 11.6879 23.0001 11.6879H13.0001C12.7348 11.6879 12.4805 11.7932 12.2929 11.9808C12.1054 12.1683 12.0001 12.4226 12.0001 12.6879C12.0001 12.9531 12.1054 13.2074 12.2929 13.395C12.4805 13.5825 12.7348 13.6879 13.0001 13.6879H23.0001C23.2653 13.6879 23.5196 13.5825 23.7072 13.395C23.8947 13.2074 24.0001 12.9531 24.0001 12.6879ZM6.10005 21.8259L9.68505 18.4119C9.78522 18.3227 9.86643 18.2143 9.92385 18.0931C9.98126 17.9718 10.0137 17.8403 10.0193 17.7063C10.0248 17.5723 10.0033 17.4386 9.95614 17.313C9.90894 17.1875 9.83697 17.0727 9.74451 16.9756C9.65205 16.8784 9.541 16.8009 9.41795 16.7475C9.2949 16.6942 9.16238 16.6661 9.02827 16.665C8.89415 16.6639 8.76119 16.6898 8.63729 16.7411C8.51339 16.7925 8.40108 16.8682 8.30705 16.9639L4.70705 20.3949C4.61086 20.4916 4.49588 20.5677 4.3692 20.6183C4.24251 20.669 4.1068 20.6932 3.97041 20.6895C3.83402 20.6857 3.69984 20.6541 3.57613 20.5965C3.45242 20.539 3.34179 20.4568 3.25105 20.3549L1.66605 18.9409C1.46793 18.7642 1.20776 18.6735 0.942776 18.6887C0.677787 18.7039 0.429686 18.8237 0.253051 19.0219C0.0764171 19.22 -0.0142811 19.4801 0.000909398 19.7451C0.0160998 20.0101 0.135935 20.2582 0.334051 20.4349L1.87805 21.8089C2.43772 22.3687 3.19597 22.6846 3.98755 22.6878C4.77913 22.6909 5.53989 22.3811 6.10405 21.8259H6.10005ZM24.0001 20.6879C24.0001 20.4226 23.8947 20.1683 23.7072 19.9808C23.5196 19.7932 23.2653 19.6879 23.0001 19.6879H13.0001C12.7348 19.6879 12.4805 19.7932 12.2929 19.9808C12.1054 20.1683 12.0001 20.4226 12.0001 20.6879C12.0001 20.9531 12.1054 21.2074 12.2929 21.395C12.4805 21.5825 12.7348 21.6879 13.0001 21.6879H23.0001C23.2653 21.6879 23.5196 21.5825 23.7072 21.395C23.8947 21.2074 24.0001 20.9531 24.0001 20.6879Z" fill="#FFF5F5"/>
</g>
<defs>
<clipPath id="clip0_142_2632">
<rect width="24" height="24" fill="white" transform="translate(0 0.687866)"/>
</clipPath>
</defs>
</svg>
