<svg width="20" height="21" viewBox="0 0 20 21" fill="none" xmlns="http://www.w3.org/2000/svg">
<g clip-path="url(#clip0_668_2)">
<path d="M13.4776 20.2749C13.3679 20.2755 13.2592 20.2545 13.1577 20.213C13.0562 20.1716 12.9638 20.1105 12.8859 20.0332L6.07762 13.2249C5.68959 12.8378 5.38173 12.378 5.17168 11.8718C4.96162 11.3656 4.8535 10.823 4.8535 10.2749C4.8535 9.72683 4.96162 9.18416 5.17168 8.67795C5.38173 8.17174 5.68959 7.71194 6.07762 7.32489L12.8859 0.516561C12.9636 0.438862 13.0559 0.377228 13.1574 0.335178C13.2589 0.293127 13.3677 0.271484 13.4776 0.271484C13.5875 0.271484 13.6963 0.293127 13.7978 0.335178C13.8993 0.377228 13.9916 0.438862 14.0693 0.516561C14.147 0.59426 14.2086 0.686501 14.2507 0.78802C14.2927 0.889538 14.3144 0.998345 14.3144 1.10823C14.3144 1.21811 14.2927 1.32692 14.2507 1.42844C14.2086 1.52995 14.147 1.6222 14.0693 1.69989L7.26095 8.50823C6.79278 8.97698 6.52981 9.61239 6.52981 10.2749C6.52981 10.9374 6.79278 11.5728 7.26095 12.0416L14.0693 18.8499C14.1474 18.9274 14.2094 19.0195 14.2517 19.1211C14.294 19.2226 14.3158 19.3316 14.3158 19.4416C14.3158 19.5516 14.294 19.6605 14.2517 19.762C14.2094 19.8636 14.1474 19.9558 14.0693 20.0332C13.9914 20.1105 13.8991 20.1716 13.7975 20.213C13.696 20.2545 13.5873 20.2755 13.4776 20.2749Z" fill="#FFF5F5"/>
</g>
<defs>
<clipPath id="clip0_668_2">
<rect width="20" height="20" fill="white" transform="matrix(-1 0 0 1 20 0.274902)"/>
</clipPath>
</defs>
</svg>
