<svg width="33" height="32" viewBox="0 0 33 32" fill="none" xmlns="http://www.w3.org/2000/svg">
<path d="M14.532 4.37755C13.009 4.51712 12.2414 5.07129 11.482 6.58602C11.2234 7.10735 8.38683 13.5029 8.13232 14.1515C7.8614 14.8247 7.77109 15.2639 7.78751 15.7688C7.80393 16.1752 7.81624 16.2327 7.95581 16.5118C8.14464 16.8977 8.45251 17.1932 8.8548 17.3821C9.40486 17.6366 9.54854 17.653 11.8227 17.6899C13.5837 17.7146 13.8998 17.731 14.0353 17.7885C14.2487 17.8788 14.3021 17.9609 14.3062 18.1866C14.3062 18.4576 14.2528 18.7285 13.5673 21.836C12.8941 24.8777 12.7997 25.358 12.7627 25.9163C12.7053 26.7167 12.9598 27.2627 13.5262 27.5665C13.6371 27.6281 13.7561 27.6445 14.0599 27.6445C14.417 27.6445 14.4704 27.6322 14.7126 27.509C15.0697 27.3284 15.4022 27.0534 15.9071 26.5279C16.2519 26.1708 22.512 19.2662 24.0185 17.5832C24.5275 17.0085 24.7615 16.6965 24.9339 16.3353C25.0612 16.0685 25.0817 15.9823 25.094 15.658C25.1022 15.4527 25.0899 15.1777 25.0612 15.0504C24.9421 14.4675 24.4988 13.8805 23.9898 13.6301C23.53 13.4044 23.3002 13.3756 21.6705 13.3469C20.0778 13.3141 20.1065 13.3223 20.0121 13.0924C19.9669 12.9815 19.9751 12.9405 20.1024 12.6737C20.1804 12.5095 20.714 11.553 21.2846 10.5473C22.8445 7.8093 23.0949 7.28797 23.1688 6.61065C23.2755 5.59262 22.7501 4.8332 21.7321 4.54175C21.1409 4.36934 20.6935 4.34882 17.5943 4.35703C16.0015 4.36113 14.6223 4.36934 14.532 4.37755Z" fill="#FCFCFC"/>
</svg>
