<svg width="20" height="21" viewBox="0 0 20 21" fill="none" xmlns="http://www.w3.org/2000/svg">
<g clip-path="url(#clip0_373_4)">
<path d="M10 13.2189C8.6193 13.2189 7.5 14.3382 7.5 15.7189V20.7189H12.5V15.7189C12.5 14.3382 11.3807 13.2189 10 13.2189Z" fill="#FFF5F5"/>
<path d="M14.1667 15.7282V20.7313H17.5C18.8807 20.7313 20 19.6113 20 18.2298V10.6242C20.0002 10.191 19.832 9.77473 19.5308 9.46349L12.4492 1.80286C11.1996 0.450062 9.09074 0.367003 7.73879 1.61731C7.67457 1.67672 7.6127 1.7386 7.55336 1.80286L0.48418 9.46099C0.173945 9.77352 -0.000117128 10.1962 5.9134e-08 10.6367V18.2298C5.9134e-08 19.6113 1.1193 20.7313 2.5 20.7313H5.83332V15.7282C5.84891 13.4544 7.68355 11.5977 9.89867 11.5442C12.1879 11.4889 14.1492 13.3773 14.1667 15.7282Z" fill="#FFF5F5"/>
<path d="M10 13.2189C8.6193 13.2189 7.5 14.3382 7.5 15.7189V20.7189H12.5V15.7189C12.5 14.3382 11.3807 13.2189 10 13.2189Z" fill="#FFF5F5"/>
</g>
<defs>
<clipPath id="clip0_373_4">
<rect width="20" height="20" fill="white" transform="translate(0 0.725098)"/>
</clipPath>
</defs>
</svg>
