<svg width="350" height="120" viewBox="0 0 350 120" fill="none" xmlns="http://www.w3.org/2000/svg">
<g clip-path="url(#clip0_390_47)">
<g opacity="0.1">
<path d="M51.4041 129.464C57.4555 134.096 72.3383 141.48 83.458 133.963C97.3577 124.567 108.346 69.1258 144.682 58.5C181.017 47.8742 227.004 113.039 265.504 97.5371C304.003 82.0348 281.983 5.6177 317.144 -4.5561C345.274 -12.6951 375.801 28.7771 387.549 50.5306" stroke="#2D2F26" stroke-width="2"/>
<path d="M44.52 158.079C49.587 144.162 63.0532 115.659 76.3826 112.987C93.0444 109.646 129.658 158.108 165.383 144.348C201.109 130.588 184.188 22.7475 213.936 10.7771C243.684 -1.19338 302.926 91.3723 328.38 81.5684C348.744 73.7252 355.069 17.2729 355.686 -9.97294" stroke="#62712A" stroke-width="2"/>
<path d="M103.978 199.28C109.258 175.708 119.134 120.931 116.398 90.3951C112.979 52.2254 118.98 27.8631 135.95 21.3272C164.618 10.2854 215.76 90.0734 251.039 76.4855C286.318 62.8977 289.666 23.6598 310.208 15.7479C326.642 9.41832 374.521 54.908 396.407 78.4441" stroke="#B2D430" stroke-width="2"/>
</g>
<path d="M223.318 86.0772L212.79 69.0245C212.21 68.0846 212.502 66.8523 213.442 66.272L232.155 54.7187C233.095 54.1385 234.328 54.43 234.908 55.3699L277.923 125.044C278.503 125.984 278.211 127.216 277.272 127.797L258.558 139.35C257.618 139.93 256.386 139.639 255.805 138.699L245.916 122.681M223.318 86.0772L204.843 97.4834C203.903 98.0636 203.611 99.296 204.192 100.236L214.32 116.642M223.318 86.0772L245.916 122.681M245.916 122.681L227.441 134.087C226.501 134.667 225.269 134.376 224.689 133.436L214.32 116.642M214.32 116.642L200.739 125.026" stroke="#B2D430" stroke-width="2"/>
<path d="M319.548 26.6675L309.02 9.61485C308.44 8.67497 307.208 8.38344 306.268 8.9637L287.554 20.517C286.614 21.0973 286.323 22.3296 286.903 23.2695L308.41 58.1067M319.548 26.6675L338.024 15.2613C338.963 14.681 340.196 14.9726 340.776 15.9124L350.905 32.3184M319.548 26.6675L342.146 63.2711M308.41 58.1067L329.918 92.9437C330.498 93.8836 331.731 94.1751 332.67 93.5949L351.384 82.0415C352.324 81.4613 352.616 80.229 352.035 79.2891L342.146 63.2711M308.41 58.1067L256.415 90.2069M350.905 32.3184L361.273 49.1125C361.853 50.0523 361.562 51.2847 360.622 51.8649L342.146 63.2711M350.905 32.3184L364.486 23.934" stroke="#B2D430" stroke-width="2"/>
</g>
<defs>
<clipPath id="clip0_390_47">
<rect width="350" height="120" rx="10" fill="white"/>
</clipPath>
</defs>
</svg>
