<svg width="33" height="32" viewBox="0 0 33 32" fill="none" xmlns="http://www.w3.org/2000/svg">
<path fill-rule="evenodd" clip-rule="evenodd" d="M16.4412 29.335C23.8059 29.335 29.7762 23.3647 29.7762 16C29.7762 8.63528 23.8059 2.66499 16.4412 2.66499C9.07648 2.66499 3.1062 8.63528 3.1062 16C3.1062 23.3647 9.07648 29.335 16.4412 29.335ZM14.648 11.5853C14.3095 11.2468 14.3095 10.698 14.648 10.3595C14.9865 10.021 15.5353 10.021 15.8738 10.3595L19.9585 14.4442C20.8177 15.3034 20.8177 16.6966 19.9585 17.5558L15.8738 21.6405C15.5353 21.979 14.9865 21.979 14.648 21.6405C14.3095 21.302 14.3095 20.7532 14.648 20.4147L18.7327 16.33C18.9149 16.1477 18.9149 15.8522 18.7327 15.67L14.648 11.5853Z" fill="#FCFCFC"/>
</svg>
