<svg width="16" height="17" viewBox="0 0 16 17" fill="none" xmlns="http://www.w3.org/2000/svg">
<g clip-path="url(#clip0_100_74)">
<path d="M2.66666 0.730042H4.66666C6.13941 0.730042 7.33331 1.92395 7.33331 3.3967V5.3967C7.33331 6.86945 6.13941 8.06335 4.66666 8.06335H2.66666C1.19391 8.06339 0 6.86948 0 5.3967V3.3967C0 1.92395 1.19391 0.730042 2.66666 0.730042Z" fill="#FFF5F5"/>
<path d="M11.3333 0.730042H13.3333C14.8061 0.730042 16 1.92395 16 3.3967V5.3967C16 6.86945 14.8061 8.06335 13.3333 8.06335H11.3333C9.86059 8.06335 8.66669 6.86945 8.66669 5.3967V3.3967C8.66666 1.92395 9.86056 0.730042 11.3333 0.730042Z" fill="#FFF5F5"/>
<path d="M2.66666 9.3967H4.66666C6.13941 9.3967 7.33331 10.5906 7.33331 12.0634V14.0634C7.33331 15.5361 6.13941 16.73 4.66666 16.73H2.66666C1.19391 16.73 0 15.5361 0 14.0634V12.0634C0 10.5906 1.19391 9.3967 2.66666 9.3967Z" fill="#FFF5F5"/>
<path d="M11.3333 9.3967H13.3333C14.8061 9.3967 16 10.5906 16 12.0634V14.0634C16 15.5361 14.8061 16.73 13.3333 16.73H11.3333C9.86059 16.73 8.66669 15.5361 8.66669 14.0634V12.0634C8.66666 10.5906 9.86056 9.3967 11.3333 9.3967Z" fill="#FFF5F5"/>
</g>
<defs>
<clipPath id="clip0_100_74">
<rect width="16" height="16" fill="white" transform="translate(0 0.730042)"/>
</clipPath>
</defs>
</svg>
