<svg width="33" height="32" viewBox="0 0 33 32" fill="none" xmlns="http://www.w3.org/2000/svg">
<path d="M10.1199 4.9165C9.88765 4.99623 9.76978 5.06903 9.62418 5.23543C9.43698 5.45037 9.37458 5.6445 9.37458 6.03277V6.34824L9.19084 6.40718C8.92044 6.49384 8.40737 6.75038 8.1023 6.95491C7.73483 7.20105 7.17323 7.76612 6.93749 8.13012C6.32736 9.07652 6.06042 10.0611 5.90442 11.9608C5.84895 12.6333 5.82122 18.9878 5.86975 20.1699C5.97376 22.6867 6.24762 23.8654 6.99296 24.954C7.37083 25.5086 8.00177 26.0598 8.60844 26.3649C9.27751 26.7012 10.1788 26.9161 11.3679 27.0236C12.3351 27.1102 15.3962 27.1588 15.7152 27.0894C15.8088 27.0686 15.9682 26.9958 16.0722 26.9265C16.5749 26.5729 16.6304 25.7964 16.1762 25.3873C15.8885 25.1273 15.9682 25.1412 14.3146 25.11C11.9261 25.0718 10.9658 24.999 10.2239 24.8084C8.86844 24.4617 8.2375 23.6158 8.0087 21.8235C7.8839 20.8598 7.86657 20.267 7.86657 16.7968C7.86657 13.4515 7.86657 13.3787 7.9359 13.2435C7.98097 13.1499 8.0503 13.0806 8.1439 13.0355C8.28257 12.9661 8.3519 12.9661 16.4466 12.9661C24.5413 12.9661 24.6107 12.9661 24.7493 13.0355C24.8429 13.0806 24.9123 13.1499 24.9573 13.2435C25.0232 13.3752 25.0267 13.4723 25.044 14.8208C25.0613 16.1936 25.0648 16.2664 25.1341 16.419C25.2243 16.6096 25.4115 16.8038 25.6091 16.9078C25.8171 17.0187 26.2816 17.0222 26.4862 16.9112C26.7046 16.7934 26.8224 16.6824 26.9334 16.4779L27.0374 16.2942L27.0339 14.4568C27.0339 13.3752 27.0131 12.3768 26.9888 12.0301C26.819 9.6832 26.396 8.46639 25.4115 7.48532C25.2208 7.29465 24.94 7.05544 24.7909 6.95491C24.4859 6.75038 23.9728 6.49384 23.7024 6.40718L23.5187 6.34824V6.03277C23.5187 5.63757 23.4563 5.4469 23.2552 5.22157C22.8531 4.77436 22.1736 4.77436 21.7715 5.22157C21.6051 5.40877 21.508 5.63757 21.508 5.8525V5.99117L21.2757 5.96691C20.2045 5.85944 12.6887 5.85944 11.621 5.96691L11.3853 5.99117V5.8525C11.3853 5.24583 10.6885 4.7293 10.1199 4.9165Z" fill="#FCFCFC"/>
<path d="M21.2826 17.036C20.9914 17.1123 20.7383 17.3099 20.5962 17.5699C20.5199 17.7155 20.5199 17.7328 20.5095 19.3864L20.4991 21.0574L18.8455 21.0678C17.2058 21.0782 17.1919 21.0782 17.0325 21.1579C16.8279 21.2584 16.6442 21.4422 16.5436 21.6467C16.4327 21.872 16.4327 22.2603 16.5436 22.4856C16.6546 22.711 16.8765 22.919 17.0949 23.0022C17.2717 23.068 17.3653 23.0715 18.8906 23.0715H20.4991L20.5095 24.7425C20.5199 26.3822 20.5199 26.4203 20.5962 26.5555C20.7834 26.9057 21.1058 27.1033 21.4906 27.1067C21.8962 27.1102 22.2082 26.9195 22.4024 26.5555L22.496 26.3822L22.5064 24.7251L22.5168 23.0715H24.1045C25.9141 23.0715 25.928 23.068 26.2226 22.8046C26.441 22.6104 26.5416 22.3747 26.5416 22.0662C26.5416 21.664 26.3578 21.3624 25.9973 21.1718L25.824 21.0782L24.1704 21.0678L22.5168 21.0574L22.5064 19.4038L22.496 17.7501L22.4024 17.5733C22.2949 17.3688 22.1112 17.1955 21.9066 17.1053C21.7367 17.0325 21.4317 16.9979 21.2826 17.036Z" fill="#FCFCFC"/>
</svg>
