<svg width="33" height="32" viewBox="0 0 33 32" fill="none" xmlns="http://www.w3.org/2000/svg">
<path d="M12.1237 4.04708C12.3253 4.11417 13.604 5.19977 14.9677 6.46225C18.1141 9.37143 20.4433 11.9574 21.4302 13.6285C21.7115 14.0981 22.0298 14.836 22.1359 15.2569C22.4384 16.434 21.9661 17.7513 20.6025 19.581C19.223 21.429 16.2835 24.4235 13.2432 27.0888C12.3147 27.8999 12.0759 28.0402 11.6992 27.9914C11.1103 27.906 10.7017 27.4242 10.6646 26.7533C10.6274 26.1556 10.7601 25.9117 11.4127 25.3384C15.9121 21.3985 19.0638 18.0075 19.8066 16.3242L19.9499 15.9948L19.8066 15.6655C19.2336 14.3603 17.1802 12.0001 14.0497 9.03599C13.1955 8.23093 12.702 7.78571 11.3756 6.62082C10.7707 6.09021 10.638 5.84016 10.6646 5.25466C10.6805 4.94362 10.7176 4.79725 10.8291 4.60208C11.089 4.14466 11.6833 3.88851 12.1237 4.04708Z" fill="#FCFCFC"/>
</svg>
