<svg width="33" height="32" viewBox="0 0 33 32" fill="none" xmlns="http://www.w3.org/2000/svg">
<path fill-rule="evenodd" clip-rule="evenodd" d="M15.3398 7.63735C10.7212 7.63735 6.97716 11.3814 6.97716 16C6.97716 20.6186 10.7212 24.3626 15.3398 24.3626C16.1951 24.3626 16.8885 25.056 16.8885 25.9113C16.8885 26.7666 16.1951 27.4599 15.3398 27.4599C9.01067 27.4599 3.87988 22.3291 3.87988 16C3.87988 9.67085 9.01067 4.54007 15.3398 4.54007C21.669 4.54007 26.7997 9.67085 26.7997 16H23.7025C23.7025 11.3814 19.9584 7.63735 15.3398 7.63735Z" fill="#FCFCFC"/>
<path d="M26.2316 20.1553C25.7356 20.7974 24.7666 20.7974 24.2706 20.1553L21.7606 16.9056C21.1316 16.0912 21.7121 14.9094 22.7411 14.9094H27.7611C28.7902 14.9094 29.3706 16.0912 28.7416 16.9056L26.2316 20.1553Z" fill="#FCFCFC"/>
</svg>
