<svg width="20" height="20" viewBox="0 0 20 20" fill="none" xmlns="http://www.w3.org/2000/svg">
<g clip-path="url(#clip0_436_69)">
<path d="M16.6666 6.66663C16.6676 5.38343 16.2983 4.1272 15.6029 3.04874C14.9076 1.97028 13.9157 1.11542 12.7465 0.586779C11.5772 0.0581341 10.2802 -0.121831 9.01122 0.0684859C7.74221 0.258803 6.55509 0.811314 5.59235 1.6597C4.62961 2.50808 3.93218 3.61629 3.58376 4.85128C3.23535 6.08628 3.25075 7.39559 3.62814 8.62205C4.00552 9.84851 4.72884 10.94 5.71127 11.7655C6.69371 12.591 7.8935 13.1154 9.16664 13.2758V15.8333H7.49998C7.27896 15.8333 7.067 15.9211 6.91072 16.0774C6.75444 16.2337 6.66664 16.4456 6.66664 16.6666C6.66664 16.8876 6.75444 17.0996 6.91072 17.2559C7.067 17.4122 7.27896 17.5 7.49998 17.5H9.16664V19.1666C9.16664 19.3876 9.25444 19.5996 9.41072 19.7559C9.567 19.9122 9.77896 20 9.99998 20C10.221 20 10.433 19.9122 10.5892 19.7559C10.7455 19.5996 10.8333 19.3876 10.8333 19.1666V17.5H12.5C12.721 17.5 12.933 17.4122 13.0892 17.2559C13.2455 17.0996 13.3333 16.8876 13.3333 16.6666C13.3333 16.4456 13.2455 16.2337 13.0892 16.0774C12.933 15.9211 12.721 15.8333 12.5 15.8333H10.8333V13.2758C12.4429 13.0716 13.9229 12.2879 14.9966 11.0715C16.0702 9.85505 16.6639 8.28912 16.6666 6.66663ZM4.99998 6.66663C4.99998 5.67773 5.29322 4.71103 5.84263 3.88878C6.39204 3.06654 7.17293 2.42567 8.08656 2.04724C9.00019 1.6688 10.0055 1.56978 10.9754 1.76271C11.9453 1.95563 12.8362 2.43184 13.5355 3.1311C14.2348 3.83036 14.711 4.72128 14.9039 5.69118C15.0968 6.66109 14.9978 7.66642 14.6194 8.58005C14.2409 9.49368 13.6001 10.2746 12.7778 10.824C11.9556 11.3734 10.9889 11.6666 9.99998 11.6666C8.6743 11.6653 7.4033 11.1381 6.46591 10.2007C5.52851 9.26331 5.0013 7.99231 4.99998 6.66663Z" fill="#FFF5F5"/>
</g>
<defs>
<clipPath id="clip0_436_69">
<rect width="20" height="20" fill="white"/>
</clipPath>
</defs>
</svg>
