<svg width="33" height="32" viewBox="0 0 33 32" fill="none" xmlns="http://www.w3.org/2000/svg">
<path d="M5.15626 5.31455C4.88872 5.44215 4.69526 5.6356 4.56354 5.9155L4.45652 6.14189L4.44417 12.3984C4.42771 20.4907 4.47299 22.1701 4.72407 23.2279C5.0122 24.4504 5.58434 25.3107 6.50635 25.9116C7.25549 26.4014 8.16515 26.6402 9.66342 26.7431C10.0298 26.7678 13.6025 26.7842 18.9041 26.7842H27.548L27.7538 26.6854C28.1901 26.4838 28.4412 26.0845 28.4412 25.5864C28.4412 25.0966 28.1777 24.7015 27.7085 24.4916C27.5562 24.4216 27.0458 24.4175 18.5748 24.3928C10.5813 24.3722 9.55228 24.364 9.16537 24.3063C7.59301 24.0635 7.19786 23.6766 6.95913 22.133C6.89738 21.7461 6.88915 20.8611 6.86857 13.9214L6.84387 6.14189L6.73685 5.9155C6.52282 5.46273 6.14413 5.21576 5.6502 5.21576C5.43204 5.21576 5.31268 5.24046 5.15626 5.31455Z" fill="#FCFCFC"/>
<path fill-rule="evenodd" clip-rule="evenodd" d="M25.0469 8.91323C25.7532 9.12138 26.1571 9.86273 25.9489 10.5691C25.8349 10.9561 25.7201 11.3641 25.6024 11.7823C25.2008 13.2097 24.7655 14.7566 24.2107 16.0007C23.5182 17.5535 22.3325 19.3393 20.1444 19.3393C18.072 19.3393 17.16 17.7782 16.6545 16.9131C16.6285 16.8686 16.6036 16.8259 16.5796 16.7854C16.283 16.2836 16.091 15.986 15.8719 15.7861C15.7122 15.6404 15.5333 15.541 15.1871 15.541C14.9608 15.541 14.8303 15.602 14.7021 15.7168C14.5369 15.8649 14.3381 16.1438 14.1219 16.6451C13.7903 17.4138 13.5427 18.3761 13.2393 19.5556C13.1272 19.9916 13.0074 20.4572 12.8729 20.9537C12.6804 21.6645 11.9481 22.0846 11.2374 21.8921C10.5266 21.6996 10.1065 20.9673 10.299 20.2565C10.4033 19.8716 10.5048 19.476 10.6067 19.0793C10.9279 17.8281 11.2521 16.5655 11.6733 15.5889C11.9615 14.9206 12.3487 14.2449 12.9227 13.7306C13.5337 13.1832 14.2957 12.8743 15.1871 12.8743C16.2379 12.8743 17.0484 13.2497 17.6693 13.8162C18.2188 14.3176 18.5942 14.9529 18.8582 15.3996C18.8639 15.4092 18.8695 15.4188 18.8751 15.4283C19.5084 16.4994 19.6939 16.6726 20.1444 16.6726C20.586 16.6726 21.1293 16.3629 21.7753 14.9145C22.2433 13.8651 22.6031 12.589 22.9934 11.2044C23.121 10.7516 23.252 10.2872 23.391 9.81531C23.5992 9.10896 24.3405 8.70509 25.0469 8.91323Z" fill="#FCFCFC"/>
</svg>
