<svg width="33" height="32" viewBox="0 0 33 32" fill="none" xmlns="http://www.w3.org/2000/svg">
<path fill-rule="evenodd" clip-rule="evenodd" d="M16.4412 29.335C23.8059 29.335 29.7762 23.3647 29.7762 16C29.7762 8.63528 23.8059 2.66499 16.4412 2.66499C9.07648 2.66499 3.1062 8.63528 3.1062 16C3.1062 23.3647 9.07648 29.335 16.4412 29.335ZM18.2344 11.5853C18.5729 11.2468 18.5729 10.698 18.2344 10.3595C17.8959 10.021 17.3471 10.021 17.0086 10.3595L12.9239 14.4442C12.0647 15.3034 12.0647 16.6966 12.9239 17.5558L17.0086 21.6405C17.3471 21.979 17.8959 21.979 18.2344 21.6405C18.5729 21.302 18.5729 20.7532 18.2344 20.4147L14.1497 16.33C13.9675 16.1477 13.9675 15.8522 14.1497 15.67L18.2344 11.5853Z" fill="#FCFCFC"/>
</svg>
