<svg width="16" height="17" viewBox="0 0 16 17" fill="none" xmlns="http://www.w3.org/2000/svg">
<g clip-path="url(#clip0_109_311)">
<path d="M11.3333 0.730042H4.66665C2.82865 0.730042 1.33331 2.22537 1.33331 4.06337V13.3967C1.33331 15.2347 2.82865 16.73 4.66665 16.73H11.3333C13.1713 16.73 14.6666 15.2347 14.6666 13.3967V4.06337C14.6666 2.22537 13.1713 0.730042 11.3333 0.730042ZM6.66665 13.3967C6.66665 13.7647 6.36798 14.0634 5.99998 14.0634H4.66665C4.29865 14.0634 3.99998 13.7647 3.99998 13.3967V12.0634C3.99998 11.6954 4.29865 11.3967 4.66665 11.3967H5.99998C6.36798 11.3967 6.66665 11.6954 6.66665 12.0634V13.3967ZM6.66665 9.39671C6.66665 9.76471 6.36798 10.0634 5.99998 10.0634H4.66665C4.29865 10.0634 3.99998 9.76471 3.99998 9.39671V8.06337C3.99998 7.69537 4.29865 7.39671 4.66665 7.39671H5.99998C6.36798 7.39671 6.66665 7.69537 6.66665 8.06337V9.39671ZM6.66665 5.39671C6.66665 5.76471 6.36798 6.06337 5.99998 6.06337H4.66665C4.29865 6.06337 3.99998 5.76471 3.99998 5.39671V4.06337C3.99998 3.69537 4.29865 3.39671 4.66665 3.39671H5.99998C6.36798 3.39671 6.66665 3.69537 6.66665 4.06337V5.39671ZM11.3333 13.3967H8.66665C7.79465 13.3927 7.79531 12.0674 8.66665 12.0634H11.3333C12.2053 12.0674 12.2046 13.3927 11.3333 13.3967ZM11.3333 9.39671H8.66665C7.79465 9.39271 7.79531 8.06738 8.66665 8.06337H11.3333C12.2053 8.06738 12.2046 9.39271 11.3333 9.39671ZM11.3333 5.39671H8.66665C7.79465 5.39271 7.79531 4.06737 8.66665 4.06337H11.3333C12.2053 4.06737 12.2046 5.39271 11.3333 5.39671Z" fill="#FFF5F5"/>
</g>
<defs>
<clipPath id="clip0_109_311">
<rect width="16" height="16" fill="white" transform="translate(0 0.730042)"/>
</clipPath>
</defs>
</svg>
