<svg width="33" height="32" viewBox="0 0 33 32" fill="none" xmlns="http://www.w3.org/2000/svg">
<path fill-rule="evenodd" clip-rule="evenodd" d="M15.0058 2.71588L15.0054 2.71593L14.7674 2.7436C14.1663 2.81181 13.1986 3.01644 12.5634 3.20827C9.57925 4.11204 7.00862 6.02616 5.27355 8.64368C4.18647 10.2807 3.49159 12.1266 3.18465 14.1857C3.12496 14.5907 3.10791 14.9658 3.10791 15.9975C3.10791 17.0291 3.12496 17.4043 3.18465 17.8093C3.63227 20.7977 4.90692 23.3641 6.9873 25.4402C9.22115 27.6783 12.0987 29.0254 15.2363 29.3025C16.0378 29.3707 17.6492 29.3281 18.3697 29.2172C19.6998 29.0126 20.7442 28.7057 21.9507 28.1643C25.7533 26.4505 28.5627 22.9889 29.475 18.8964C29.8246 17.3403 29.8714 15.3282 29.5986 13.738C28.9336 9.83308 26.5761 6.45247 23.1102 4.42325C21.6778 3.58768 20.0493 3.02922 18.2546 2.75639C17.8368 2.69244 15.6925 2.63702 15.3216 2.67965C15.2694 2.68515 15.1462 2.69951 15.0058 2.71588ZM16.1017 9.83308C15.7436 9.92261 15.4751 10.1571 15.2917 10.5365C15.198 10.7369 15.1852 10.8051 15.2022 11.0907C15.2278 11.4786 15.3216 11.6875 15.5859 11.9305C15.8587 12.182 16.0975 12.263 16.5025 12.2375C17.0098 12.2076 17.3338 11.9945 17.5469 11.5426C17.9903 10.6004 17.1249 9.5773 16.1017 9.83308ZM14.793 15.358C14.3752 14.8933 14.5372 14.1813 15.1298 13.9C15.279 13.8318 15.3728 13.8232 15.8332 13.8403C16.1486 13.8488 16.4556 13.8872 16.5877 13.9256C17.0567 14.0748 17.4062 14.4201 17.5682 14.9018C17.6364 15.1022 17.645 15.4432 17.6578 18.713C17.6663 21.2026 17.6578 22.3579 17.6237 22.4773C17.5213 22.8482 17.1419 23.1253 16.7284 23.1253C16.3533 23.1253 16.0804 22.9547 15.8928 22.6052C15.8161 22.4645 15.8119 22.2812 15.7991 19.0839L15.7863 15.7118L15.5049 15.6819C15.1553 15.6436 14.9848 15.5668 14.793 15.358Z" fill="#FCFCFC"/>
</svg>
