<svg width="33" height="32" viewBox="0 0 33 32" fill="none" xmlns="http://www.w3.org/2000/svg">
<path d="M20.6452 6.25901C20.0315 6.3743 19.5798 6.55504 19.1499 6.85731C18.9225 7.01935 18.2839 7.62389 18.1499 7.81086C18.0907 7.89188 18.0596 7.96978 18.0596 8.04457C18.0596 8.15052 18.1998 8.29698 21.2152 11.3103C24.3429 14.4421 24.3709 14.467 24.4924 14.467C24.6108 14.467 24.6357 14.4483 25.0064 14.0712C25.4394 13.6287 25.6232 13.3888 25.8101 13.018C26.103 12.4384 26.2058 11.9429 26.1808 11.2418C26.1466 10.2508 25.8662 9.612 25.0905 8.7644C24.5547 8.17856 23.3678 7.01935 23.1342 6.85419C22.8538 6.65476 22.399 6.44286 22.047 6.34626C21.7947 6.2777 21.6732 6.26524 21.2371 6.25589C20.9536 6.24966 20.6888 6.25277 20.6452 6.25901Z" fill="#FCFCFC"/>
<path d="M16.6016 9.51851C16.5393 9.54967 9.4055 17.2559 8.51456 18.2531C7.50835 19.3812 7.13142 20.1135 6.94139 21.3225C6.81678 22.0953 6.6766 23.9308 6.69529 24.4667C6.70775 24.7846 6.72021 24.85 6.79809 25.0121C6.95073 25.3299 7.21553 25.5449 7.57689 25.6447C7.82922 25.7101 9.10021 25.7537 10.3307 25.7381C11.3026 25.7257 11.5207 25.7132 11.8135 25.6602C12.8478 25.467 13.5798 25.0432 14.7418 23.9713C15.72 23.0645 23.0126 16.0032 23.0438 15.9347C23.0687 15.8724 23.0687 15.8256 23.0438 15.7571C23.0126 15.6729 17.1966 9.81454 16.9349 9.60576C16.8041 9.49981 16.6981 9.47177 16.6016 9.51851Z" fill="#FCFCFC"/>
<path d="M17.8321 23.975C17.6421 24.0186 17.4832 24.1151 17.3492 24.2678C16.9567 24.7133 17.0969 25.4017 17.6296 25.6665L17.7916 25.7475H21.6544C25.4736 25.7475 25.5235 25.7444 25.6606 25.6821C25.9814 25.5388 26.1621 25.2678 26.1839 24.9033C26.1964 24.6977 26.187 24.6416 26.1216 24.4952C26.0281 24.2958 25.8662 24.1276 25.6668 24.0279L25.5204 23.9563L21.7354 23.95C19.5828 23.9469 17.9006 23.9594 17.8321 23.975Z" fill="#FCFCFC"/>
</svg>
