<svg width="33" height="32" viewBox="0 0 33 32" fill="none" xmlns="http://www.w3.org/2000/svg">
<path d="M25.5605 7.11464C25.418 7.16689 24.9526 7.38061 24.5299 7.58959C21.7704 8.96219 18.5978 11.8499 15.2541 16.0437C14.3802 17.1361 13.0884 18.8839 12.3094 20.019C11.9295 20.5747 11.6113 21.0259 11.597 21.0259C11.5828 21.0306 11.5258 20.9594 11.4735 20.8739C11.2408 20.5224 10.5521 19.7055 10.1057 19.2543C8.69508 17.8342 7.03276 17.0981 6.1731 17.5113C5.69816 17.7392 5.42269 18.1429 5.38469 18.6606C5.35619 19.0643 5.46068 19.3826 5.7124 19.6675C5.91188 19.9003 6.31559 20.1282 6.51032 20.1282C6.7098 20.1282 7.17525 20.3752 7.55995 20.6839C8.41011 21.3631 9.30302 22.4745 10.1912 23.9611C10.6661 24.759 10.9606 24.968 11.6018 24.9727C11.8867 24.9727 12.0055 24.949 12.1955 24.854C12.5232 24.6925 12.5992 24.6022 13.2593 23.5716C15.0546 20.7789 17.1682 17.9577 19.2627 15.5687C19.9799 14.7518 22.0364 12.7095 22.7108 12.1491C24.1689 10.938 25.2755 10.2256 26.4867 9.72211C27.1421 9.45139 27.4556 9.06668 27.4983 8.48724C27.5363 7.9268 27.2893 7.46135 26.8096 7.17638C26.5152 7.0054 25.9452 6.97691 25.5605 7.11464Z" fill="#FCFCFC"/>
</svg>
