<svg width="20" height="20" viewBox="0 0 20 20" fill="none" xmlns="http://www.w3.org/2000/svg">
<g clip-path="url(#clip0_436_67)">
<path d="M17.5097 0H13.3594C12.9009 0 12.5293 0.372266 12.5293 0.831445C12.5293 1.29062 12.9009 1.66289 13.3594 1.66289H17.1661L11.495 7.3434C8.42576 4.9184 3.97502 5.44477 1.55404 8.51906C-0.866933 11.5934 -0.341464 16.0514 2.72775 18.4764C5.79697 20.9014 10.2477 20.375 12.6687 17.3007C14.6964 14.7259 14.6964 11.094 12.6687 8.5191L18.3399 2.83859V6.65164C18.3399 7.11086 18.7115 7.48309 19.1699 7.48309C19.6284 7.48309 20 7.11082 20 6.65164V2.49437C20 1.11676 18.8851 0 17.5097 0ZM7.13369 18.292C4.15381 18.292 1.73814 15.8723 1.73814 12.8875C1.73814 9.90273 4.15381 7.48309 7.13369 7.48309C10.1136 7.48309 12.5292 9.90273 12.5292 12.8875C12.5256 15.8708 10.1121 18.2883 7.13369 18.292Z" fill="#FFF5F5"/>
</g>
<defs>
<clipPath id="clip0_436_67">
<rect width="20" height="20" fill="white"/>
</clipPath>
</defs>
</svg>
