<svg width="20" height="21" viewBox="0 0 20 21" fill="none" xmlns="http://www.w3.org/2000/svg">
<g clip-path="url(#clip0_373_21)">
<path d="M4.58333 18.23C4.0308 18.23 3.50089 18.0105 3.11019 17.6198C2.71949 17.2291 2.5 16.6992 2.5 16.1466V1.97998C2.5 1.64846 2.3683 1.33052 2.13388 1.0961C1.89946 0.861677 1.58152 0.72998 1.25 0.72998C0.918479 0.72998 0.600537 0.861677 0.366117 1.0961C0.131696 1.33052 0 1.64846 0 1.97998L0 16.1466C0 17.3622 0.482886 18.528 1.34243 19.3876C2.20197 20.2471 3.36776 20.73 4.58333 20.73H18.75C19.0815 20.73 19.3995 20.5983 19.6339 20.3639C19.8683 20.1294 20 19.8115 20 19.48C20 19.1485 19.8683 18.8305 19.6339 18.5961C19.3995 18.3617 19.0815 18.23 18.75 18.23H4.58333Z" fill="#FFF5F5"/>
<path d="M16.25 15.73C16.5815 15.73 16.8995 15.5983 17.1339 15.3639C17.3683 15.1294 17.5 14.8115 17.5 14.48V9.47998C17.5 9.14846 17.3683 8.83052 17.1339 8.5961C16.8995 8.36168 16.5815 8.22998 16.25 8.22998C15.9185 8.22998 15.6005 8.36168 15.3661 8.5961C15.1317 8.83052 15 9.14846 15 9.47998V14.48C15 14.8115 15.1317 15.1294 15.3661 15.3639C15.6005 15.5983 15.9185 15.73 16.25 15.73Z" fill="#FFF5F5"/>
<path d="M6.25 15.73C6.58152 15.73 6.89946 15.5983 7.13388 15.3639C7.3683 15.1294 7.5 14.8115 7.5 14.48V9.47998C7.5 9.14846 7.3683 8.83052 7.13388 8.5961C6.89946 8.36168 6.58152 8.22998 6.25 8.22998C5.91848 8.22998 5.60054 8.36168 5.36612 8.5961C5.1317 8.83052 5 9.14846 5 9.47998V14.48C5 14.8115 5.1317 15.1294 5.36612 15.3639C5.60054 15.5983 5.91848 15.73 6.25 15.73Z" fill="#FFF5F5"/>
<path d="M11.25 15.73C11.5815 15.73 11.8995 15.5983 12.1339 15.3639C12.3683 15.1295 12.5 14.8115 12.5 14.48V5.31335C12.5 4.98183 12.3683 4.66389 12.1339 4.42947C11.8995 4.19505 11.5815 4.06335 11.25 4.06335C10.9185 4.06335 10.6005 4.19505 10.3661 4.42947C10.1317 4.66389 10 4.98183 10 5.31335V14.48C10 14.8115 10.1317 15.1295 10.3661 15.3639C10.6005 15.5983 10.9185 15.73 11.25 15.73Z" fill="#FFF5F5"/>
</g>
<defs>
<clipPath id="clip0_373_21">
<rect width="20" height="20" fill="white" transform="translate(0 0.72998)"/>
</clipPath>
</defs>
</svg>
