<svg width="16" height="17" viewBox="0 0 16 17" fill="none" xmlns="http://www.w3.org/2000/svg">
<g clip-path="url(#clip0_100_93)">
<path d="M3.66667 14.73C3.22464 14.73 2.80072 14.5544 2.48816 14.2419C2.17559 13.9293 2 13.5054 2 13.0634V1.73004C2 1.46483 1.89464 1.21047 1.70711 1.02293C1.51957 0.835398 1.26522 0.730042 1 0.730042C0.734784 0.730042 0.48043 0.835398 0.292893 1.02293C0.105357 1.21047 0 1.46483 0 1.73004L0 13.0634C0 14.0358 0.386308 14.9685 1.07394 15.6561C1.76158 16.3437 2.69421 16.73 3.66667 16.73H15C15.2652 16.73 15.5196 16.6247 15.7071 16.4371C15.8946 16.2496 16 15.9953 16 15.73C16 15.4648 15.8946 15.2105 15.7071 15.0229C15.5196 14.8354 15.2652 14.73 15 14.73H3.66667Z" fill="#FFF5F5"/>
<path d="M13 12.73C13.2652 12.73 13.5196 12.6247 13.7071 12.4371C13.8946 12.2496 14 11.9953 14 11.73V7.73004C14 7.46483 13.8946 7.21047 13.7071 7.02293C13.5196 6.8354 13.2652 6.73004 13 6.73004C12.7348 6.73004 12.4804 6.8354 12.2929 7.02293C12.1054 7.21047 12 7.46483 12 7.73004V11.73C12 11.9953 12.1054 12.2496 12.2929 12.4371C12.4804 12.6247 12.7348 12.73 13 12.73Z" fill="#FFF5F5"/>
<path d="M5 12.73C5.26522 12.73 5.51957 12.6247 5.70711 12.4371C5.89464 12.2496 6 11.9953 6 11.73V7.73004C6 7.46483 5.89464 7.21047 5.70711 7.02293C5.51957 6.8354 5.26522 6.73004 5 6.73004C4.73478 6.73004 4.48043 6.8354 4.29289 7.02293C4.10536 7.21047 4 7.46483 4 7.73004V11.73C4 11.9953 4.10536 12.2496 4.29289 12.4371C4.48043 12.6247 4.73478 12.73 5 12.73Z" fill="#FFF5F5"/>
<path d="M9 12.73C9.26522 12.73 9.51957 12.6247 9.70711 12.4371C9.89464 12.2496 10 11.9952 10 11.73V4.3967C10 4.13148 9.89464 3.87713 9.70711 3.68959C9.51957 3.50205 9.26522 3.3967 9 3.3967C8.73478 3.3967 8.48043 3.50205 8.29289 3.68959C8.10536 3.87713 8 4.13148 8 4.3967V11.73C8 11.9952 8.10536 12.2496 8.29289 12.4371C8.48043 12.6247 8.73478 12.73 9 12.73Z" fill="#FFF5F5"/>
</g>
<defs>
<clipPath id="clip0_100_93">
<rect width="16" height="16" fill="white" transform="translate(0 0.730042)"/>
</clipPath>
</defs>
</svg>
