<svg width="20" height="21" viewBox="0 0 20 21" fill="none" xmlns="http://www.w3.org/2000/svg">
<g clip-path="url(#clip0_373_34)">
<path d="M14.1667 0.72998H5.83335C3.53585 0.72998 1.66669 2.59915 1.66669 4.89665V16.5633C1.66669 18.8608 3.53585 20.73 5.83335 20.73H14.1667C16.4642 20.73 18.3334 18.8608 18.3334 16.5633V4.89665C18.3334 2.59915 16.4642 0.72998 14.1667 0.72998ZM8.33335 16.5633C8.33335 17.0233 7.96002 17.3966 7.50002 17.3966H5.83335C5.37335 17.3966 5.00002 17.0233 5.00002 16.5633V14.8966C5.00002 14.4366 5.37335 14.0633 5.83335 14.0633H7.50002C7.96002 14.0633 8.33335 14.4366 8.33335 14.8966V16.5633ZM8.33335 11.5633C8.33335 12.0233 7.96002 12.3966 7.50002 12.3966H5.83335C5.37335 12.3966 5.00002 12.0233 5.00002 11.5633V9.89665C5.00002 9.43665 5.37335 9.06331 5.83335 9.06331H7.50002C7.96002 9.06331 8.33335 9.43665 8.33335 9.89665V11.5633ZM8.33335 6.56331C8.33335 7.02331 7.96002 7.39665 7.50002 7.39665H5.83335C5.37335 7.39665 5.00002 7.02331 5.00002 6.56331V4.89665C5.00002 4.43665 5.37335 4.06331 5.83335 4.06331H7.50002C7.96002 4.06331 8.33335 4.43665 8.33335 4.89665V6.56331ZM14.1667 16.5633H10.8334C9.74335 16.5583 9.74419 14.9016 10.8334 14.8966H14.1667C15.2567 14.9016 15.2559 16.5583 14.1667 16.5633ZM14.1667 11.5633H10.8334C9.74335 11.5583 9.74419 9.90165 10.8334 9.89665H14.1667C15.2567 9.90165 15.2559 11.5583 14.1667 11.5633ZM14.1667 6.56331H10.8334C9.74335 6.55831 9.74419 4.90165 10.8334 4.89665H14.1667C15.2567 4.90165 15.2559 6.55831 14.1667 6.56331Z" fill="#FFF5F5"/>
</g>
<defs>
<clipPath id="clip0_373_34">
<rect width="20" height="20" fill="white" transform="translate(0 0.72998)"/>
</clipPath>
</defs>
</svg>
