<svg width="33" height="32" viewBox="0 0 33 32" fill="none" xmlns="http://www.w3.org/2000/svg">
<path d="M7.45969 5.84535C7.33579 5.87144 7.15321 5.93015 7.05214 5.97908C6.81739 6.08998 6.53374 6.37701 6.41962 6.61511C6.25334 6.9739 6.23052 7.20222 6.24356 8.52321C6.25661 9.64524 6.25987 9.7333 6.32833 9.93227C6.51418 10.49 6.92172 10.839 7.51837 10.9499C7.86723 11.0119 25.0168 11.0119 25.3657 10.9499C25.9623 10.839 26.3699 10.49 26.5557 9.93227C26.6242 9.7333 26.6275 9.64524 26.6405 8.52321C26.6535 7.20222 26.6307 6.9739 26.4644 6.61511C26.3503 6.37701 26.0667 6.08998 25.8319 5.97908C25.4081 5.77685 25.9949 5.7899 16.4192 5.79316C8.80296 5.79642 7.65857 5.80295 7.45969 5.84535Z" fill="#FCFCFC"/>
<path d="M7.5281 13.4419C6.84668 13.5659 6.42609 13.9736 6.28915 14.639C6.21416 15.001 6.21416 16.9972 6.28915 17.3592C6.42935 18.0377 6.84994 18.4389 7.55418 18.5595C7.80849 18.6019 8.89746 18.6085 16.442 18.6085C25.9297 18.6085 25.3917 18.6215 25.8319 18.4062C26.2296 18.2105 26.4905 17.8517 26.5981 17.3494C26.6665 17.0265 26.6665 14.9717 26.5981 14.6487C26.4905 14.1432 26.2264 13.7811 25.8286 13.592C25.3819 13.3767 25.9297 13.3897 16.4126 13.393C9.0996 13.3963 7.74654 13.4028 7.5281 13.4419Z" fill="#FCFCFC"/>
<path d="M7.83487 21.0123C6.99043 21.1003 6.54376 21.4102 6.32858 22.0658C6.26011 22.2648 6.25685 22.3528 6.24381 23.4749C6.23077 24.7959 6.25359 25.0242 6.41987 25.383C6.53724 25.6276 6.81763 25.9081 7.06216 26.0255C7.47297 26.218 6.95783 26.2082 16.4423 26.2082C25.9267 26.2082 25.4116 26.218 25.8224 26.0255C26.0669 25.9081 26.3473 25.6276 26.4647 25.383C26.631 25.0242 26.6538 24.7959 26.6407 23.4749C26.6277 22.3528 26.6244 22.2648 26.556 22.0658C26.3832 21.5407 26.0082 21.2015 25.4507 21.0612C25.2453 21.0123 24.5443 21.009 16.589 21.0025C11.8386 21.0025 7.89682 21.0057 7.83487 21.0123Z" fill="#FCFCFC"/>
</svg>
