<svg width="33" height="32" viewBox="0 0 33 32" fill="none" xmlns="http://www.w3.org/2000/svg">
<path d="M20.7586 4.04708C20.557 4.11417 19.2783 5.19977 17.9147 6.46225C14.7683 9.37143 12.439 11.9574 11.4521 13.6285C11.1709 14.0981 10.8525 14.836 10.7464 15.2569C10.444 16.434 10.9162 17.7513 12.2798 19.581C13.6593 21.429 16.5988 24.4235 19.6391 27.0888C20.5676 27.8999 20.8064 28.0402 21.1831 27.9914C21.7721 27.906 22.1806 27.4242 22.2178 26.7533C22.2549 26.1556 22.1222 25.9117 21.4696 25.3384C16.9702 21.3985 13.8185 18.0075 13.0757 16.3242L12.9324 15.9948L13.0757 15.6655C13.6487 14.3603 15.7021 12.0001 18.8326 9.03599C19.6868 8.23093 20.1803 7.78571 21.5068 6.62082C22.1116 6.09021 22.2443 5.84016 22.2178 5.25466C22.2018 4.94362 22.1647 4.79725 22.0533 4.60208C21.7933 4.14466 21.199 3.88851 20.7586 4.04708Z" fill="#FCFCFC"/>
</svg>
