<svg width="33" height="32" viewBox="0 0 33 32" fill="none" xmlns="http://www.w3.org/2000/svg">
<path d="M15.509 6.8857C12.5499 7.1654 9.61104 8.71386 6.9357 11.4014C6.06824 12.2729 5.32644 13.1403 4.5441 14.2105C3.90364 15.0901 3.75366 15.4265 3.75366 16.0021C3.75366 16.5777 3.90364 16.9142 4.5441 17.7938C6.77356 20.8421 9.3881 23.0756 12.0837 24.2349C14.9496 25.4631 17.933 25.4631 20.7988 24.2349C23.5188 23.0675 26.2265 20.7367 28.4074 17.6925C28.9951 16.8696 29.1289 16.5615 29.1289 16.0021C29.1289 15.3536 28.9343 14.9766 27.9169 13.6511C26.2063 11.4216 24.1795 9.59753 22.0838 8.40984C19.9881 7.22215 17.6533 6.68303 15.509 6.8857ZM17.1588 11.9283C18.8937 12.2567 20.2151 13.5862 20.5151 15.309C20.7907 16.8777 20.1016 18.5072 18.7761 19.4152C18.4275 19.6584 17.8438 19.9179 17.4303 20.0233C16.9115 20.153 15.9711 20.153 15.4522 20.0233C14.2929 19.7314 13.2876 18.9247 12.7525 17.8668C12.254 16.8737 12.1688 15.7224 12.5255 14.6807C13.0079 13.2579 14.1956 12.2283 15.6954 11.9324C16.0765 11.8554 16.7696 11.8554 17.1588 11.9283Z" fill="#FCFCFC"/>
</svg>
