<svg width="16" height="16" viewBox="0 0 16 16" fill="none" xmlns="http://www.w3.org/2000/svg">
<path d="M15.2933 0.706709C14.8401 0.254173 14.2258 0 13.5853 0C12.9449 0 12.3306 0.254173 11.8773 0.706709L0 12.584V16H3.416L15.2933 4.12271C15.7457 3.66939 15.9998 3.05513 15.9998 2.41471C15.9998 1.77429 15.7457 1.16003 15.2933 0.706709ZM2.86667 14.6667H1.33333V13.1334L10.2067 4.26671L11.74 5.80004L2.86667 14.6667ZM14.3507 3.18004L12.6793 4.85138L11.1493 3.31804L12.82 1.64938C13.0233 1.44604 13.2991 1.33181 13.5867 1.33181C13.8742 1.33181 14.15 1.44604 14.3533 1.64938C14.5567 1.85271 14.6709 2.12849 14.6709 2.41604C14.6709 2.7036 14.5567 2.97938 14.3533 3.18271L14.3507 3.18004Z" fill="white"/>
</svg>
