<svg width="20" height="20" viewBox="0 0 20 20" fill="none" xmlns="http://www.w3.org/2000/svg">
<g clip-path="url(#clip0_411_61)">
<path d="M17.8017 6.72667C17.4433 6.68667 17.0608 6.66667 16.6667 6.66667C14.33 6.66667 12.405 8.90833 12.01 9.40167C11.5392 9.245 11.0042 9.14833 10.3983 9.16667C9.2475 9.1925 8.24416 9.57417 7.43083 10.0483C7.56833 9.00667 7.54416 8.03167 7.51916 7.22C7.50166 6.685 7.48666 6.17167 7.5275 5.7925L9.43583 5.185C9.78166 5.075 10.0167 4.75333 10.0167 4.39083V4.15667L10.6742 3.9175C11.0692 3.76083 11.3883 3.445 11.55 3.05167C11.71 2.66083 11.7067 2.235 11.5383 1.85083C11.0458 0.726667 9.7875 0 8.33333 0C6.8125 0 5.6475 0.989167 5.56416 1.065C0.577497 4.9 -0.00333618 10.0292 -0.00750285 13.5533C-0.00916952 14.6808 0.454997 15.7708 1.26583 16.5467C2.625 17.8442 5.5675 20.02 9.99916 20.02C13.9042 20.02 16.6375 19.0008 18.2433 18.1458C19.3267 17.57 19.9992 16.4433 19.9992 15.2075V9.21167C19.9992 7.93667 19.0542 6.86833 17.8008 6.72833L17.8017 6.72667ZM18.3333 15.2067C18.3333 15.825 17.9992 16.3875 17.4608 16.6742C16.0225 17.44 13.5608 18.3533 10 18.3533C6.14833 18.3533 3.59583 16.4658 2.41666 15.3417C1.92666 14.8733 1.6575 14.24 1.65916 13.5558C1.66333 10.115 2.22583 5.73583 6.62 2.35417C6.6275 2.3475 7.42583 1.6675 8.33333 1.6675C9.155 1.6675 9.71833 2.02333 9.9525 2.40833L8.8975 2.79167C8.5675 2.91167 8.34916 3.22417 8.34916 3.57417V3.7825L6.56333 4.35083C6.31416 4.43 6.1175 4.62083 6.03 4.86667C5.7975 5.52333 5.8225 6.33417 5.85166 7.2725C5.895 8.68833 5.955 10.4592 5.09666 12.1292C5.03916 12.2425 4.99916 12.3658 4.99916 12.5017C4.99916 12.9617 5.3725 13.335 5.8325 13.335C6.09916 13.335 6.325 13.2025 6.4775 13.0075C6.49416 12.9867 8.14916 10.885 10.4342 10.835C12.0592 10.835 13.015 12.0717 13.0592 12.1367C13.3158 12.515 13.8325 12.6158 14.2133 12.36C14.595 12.1033 14.6967 11.5858 14.44 11.2033C14.4133 11.1633 14.0958 10.695 13.4992 10.2183C14.12 9.51167 15.4158 8.335 16.665 8.335C16.9975 8.335 17.3175 8.3525 17.615 8.38583C18.0233 8.43167 18.3317 8.78667 18.3317 9.2125V15.2083L18.3333 15.2067Z" fill="#FFF5F5"/>
</g>
<defs>
<clipPath id="clip0_411_61">
<rect width="20" height="20" fill="white"/>
</clipPath>
</defs>
</svg>
