<svg width="33" height="32" viewBox="0 0 33 32" fill="none" xmlns="http://www.w3.org/2000/svg">
<path d="M14.8725 4.47992C14.1306 4.58327 13.4478 4.91546 13.0012 5.39529C12.6542 5.76439 12.3294 6.35127 11.7314 7.68004L11.5137 8.17095L9.63124 8.17464C7.14718 8.17833 6.46803 8.20416 6.27241 8.30751C5.91069 8.49945 5.68923 8.87224 5.69292 9.28195C5.69292 9.7101 5.90331 10.0386 6.28348 10.2268C6.4828 10.3265 6.5234 10.3302 7.09551 10.3413C7.42401 10.3487 7.69345 10.3597 7.69345 10.3671C7.69345 10.5074 8.33569 21.1043 8.37629 21.6247C8.56823 24.1125 8.88935 25.0685 9.86747 26.0835C10.5577 26.7996 11.2295 27.1871 12.1965 27.4233L12.621 27.5267L16.2566 27.5378C20.2208 27.5525 20.2503 27.5525 20.9812 27.3385C22.1291 27.0063 23.2105 26.1093 23.7753 25.0168C24.1776 24.238 24.3658 23.3079 24.5061 21.3664C24.5356 20.9382 24.6943 18.4062 24.8567 15.7376C25.0191 13.0689 25.1594 10.7657 25.1705 10.6181L25.1963 10.356L25.7906 10.3413C26.359 10.3302 26.3996 10.3265 26.5989 10.2268C26.9828 10.0386 27.1895 9.7101 27.1895 9.27825C27.1895 8.86117 26.9717 8.49945 26.61 8.30751C26.4143 8.20416 25.7352 8.17833 23.3065 8.17464L21.4794 8.17095L20.9812 7.17068C20.708 6.62071 20.4054 6.04491 20.3057 5.89358C19.8702 5.21074 19.2759 4.77889 18.4749 4.56112C18.1243 4.46885 18.1058 4.46515 16.6073 4.45777C15.7768 4.45408 14.9943 4.46146 14.8725 4.47992ZM18.0062 6.65763C18.2904 6.76097 18.4749 6.97874 18.7813 7.57669C18.9363 7.87935 19.0618 8.13773 19.0618 8.1488C19.0618 8.15987 17.8991 8.17095 16.4744 8.17095H13.8907L13.9165 8.08605C13.9756 7.89412 14.4185 7.05626 14.5255 6.93445C14.6621 6.77943 14.8651 6.66501 15.0866 6.62071C15.1715 6.60226 15.8322 6.59488 16.5519 6.59857C17.5633 6.60595 17.8955 6.61702 18.0062 6.65763ZM14.1048 14.4199C14.2598 14.5011 14.4111 14.6635 14.4886 14.8333C14.5551 14.9735 14.5588 15.1618 14.5588 18.3766C14.5588 21.6063 14.5551 21.7798 14.4886 21.92C14.245 22.4442 13.6249 22.5733 13.2115 22.1932C12.9199 21.9237 12.9347 22.1267 12.9347 18.3766C12.9347 14.6672 12.9236 14.8369 13.1894 14.5786C13.2669 14.5011 13.3961 14.4162 13.4736 14.3866C13.6434 14.3239 13.9497 14.3423 14.1048 14.4199ZM19.3719 14.3756C19.4494 14.3977 19.5859 14.4789 19.6708 14.5601C19.9624 14.8296 19.9477 14.6266 19.9477 18.3766C19.9477 22.1267 19.9624 21.9237 19.6708 22.1932C19.2538 22.577 18.6337 22.4442 18.3937 21.92C18.3273 21.7798 18.3236 21.5915 18.3236 18.3766C18.3236 15.1027 18.3273 14.9772 18.3974 14.8333C18.5894 14.4309 18.9548 14.2611 19.3719 14.3756Z" fill="#FCFCFC"/>
</svg>
